<svg width="741" height="742" viewBox="0 0 741 742" fill="none" xmlns="http://www.w3.org/2000/svg">
<rect x="15" y="15" width="711" height="433" rx="15" stroke="black" stroke-width="30"/>
<line x1="13" y1="350" x2="741" y2="350" stroke="black" stroke-width="30"/>
<mask id="path-3-inside-1_2313_32" fill="white">
<path d="M56 76C56 64.9543 64.9543 56 76 56H669C680.046 56 689 64.9543 689 76V365H56V76Z"/>
</mask>
<path d="M56 76C56 64.9543 64.9543 56 76 56H669C680.046 56 689 64.9543 689 76V365H56V76Z" stroke="black" stroke-width="60" mask="url(#path-3-inside-1_2313_32)"/>
<rect x="327" y="391" width="100" height="30" rx="15" fill="black"/>
<rect x="332" y="463" width="89" height="72" fill="black"/>
<path d="M106 582C106 556.043 127.043 535 153 535H605C630.957 535 652 556.043 652 582V582H106V582Z" fill="black"/>
<rect x="171" y="269.804" width="200" height="30" rx="15" transform="rotate(-45.9738 171 269.804)" fill="black"/>
<rect x="171" y="197.902" width="100" height="30" rx="15" transform="rotate(-45.9738 171 197.902)" fill="black"/>
<path d="M110.937 719V649.182H129.892V677.409H130.847L151.847 649.182H173.937L150.347 680.273L174.483 719H151.847L136.165 692.818L129.892 701V719H110.937ZM197.699 719H177.244L200.29 649.182H226.199L249.244 719H228.79L213.517 668.409H212.972L197.699 719ZM193.881 691.455H232.335V705.636H193.881V691.455ZM290.886 671C290.705 668.727 289.852 666.955 288.33 665.682C286.83 664.409 284.545 663.773 281.477 663.773C279.523 663.773 277.92 664.011 276.67 664.489C275.443 664.943 274.534 665.568 273.943 666.364C273.352 667.159 273.045 668.068 273.023 669.091C272.977 669.932 273.125 670.693 273.466 671.375C273.83 672.034 274.398 672.636 275.17 673.182C275.943 673.705 276.932 674.182 278.136 674.614C279.341 675.045 280.773 675.432 282.432 675.773L288.159 677C292.023 677.818 295.33 678.898 298.08 680.239C300.83 681.58 303.08 683.159 304.83 684.977C306.58 686.773 307.864 688.795 308.682 691.045C309.523 693.295 309.955 695.75 309.977 698.409C309.955 703 308.807 706.886 306.534 710.068C304.261 713.25 301.011 715.67 296.784 717.33C292.58 718.989 287.523 719.818 281.614 719.818C275.545 719.818 270.25 718.92 265.727 717.125C261.227 715.33 257.727 712.568 255.227 708.841C252.75 705.091 251.5 700.295 251.477 694.455H269.477C269.591 696.591 270.125 698.386 271.08 699.841C272.034 701.295 273.375 702.398 275.102 703.148C276.852 703.898 278.932 704.273 281.341 704.273C283.364 704.273 285.057 704.023 286.42 703.523C287.784 703.023 288.818 702.33 289.523 701.443C290.227 700.557 290.591 699.545 290.614 698.409C290.591 697.341 290.239 696.409 289.557 695.614C288.898 694.795 287.807 694.068 286.284 693.432C284.761 692.773 282.705 692.159 280.114 691.591L273.159 690.091C266.977 688.75 262.102 686.511 258.534 683.375C254.989 680.216 253.227 675.909 253.25 670.455C253.227 666.023 254.409 662.148 256.795 658.83C259.205 655.489 262.534 652.886 266.784 651.023C271.057 649.159 275.955 648.227 281.477 648.227C287.114 648.227 291.989 649.17 296.102 651.057C300.216 652.943 303.386 655.602 305.614 659.034C307.864 662.443 309 666.432 309.023 671H290.886ZM336.142 649.182V719H317.187V649.182H336.142ZM363.261 719H342.807L365.852 649.182H391.761L414.807 719H394.352L379.08 668.409H378.534L363.261 719ZM359.443 691.455H397.898V705.636H359.443V691.455ZM432.031 720.091C429.395 720.091 427.134 719.17 425.247 717.33C423.384 715.466 422.463 713.205 422.486 710.545C422.463 707.955 423.384 705.739 425.247 703.898C427.134 702.057 429.395 701.136 432.031 701.136C434.531 701.136 436.736 702.057 438.645 703.898C440.577 705.739 441.554 707.955 441.577 710.545C441.554 712.318 441.088 713.932 440.179 715.386C439.293 716.818 438.134 717.966 436.702 718.83C435.27 719.67 433.713 720.091 432.031 720.091ZM478.395 719H451.531V649.182H478.122C485.304 649.182 491.509 650.58 496.736 653.375C501.986 656.148 506.031 660.148 508.872 665.375C511.736 670.58 513.168 676.818 513.168 684.091C513.168 691.364 511.747 697.614 508.906 702.841C506.065 708.045 502.043 712.045 496.838 714.841C491.634 717.614 485.486 719 478.395 719ZM470.486 702.909H477.713C481.168 702.909 484.111 702.352 486.543 701.239C488.997 700.125 490.861 698.205 492.133 695.477C493.429 692.75 494.077 688.955 494.077 684.091C494.077 679.227 493.418 675.432 492.099 672.705C490.804 669.977 488.895 668.057 486.372 666.943C483.872 665.83 480.804 665.273 477.168 665.273H470.486V702.909ZM521.937 719V649.182H572.256V664.455H540.892V676.455H569.665V691.727H540.892V703.727H572.119V719H521.937ZM600.747 649.182L615.065 698.409H615.611L629.929 649.182H651.338L628.293 719H602.383L579.338 649.182H600.747Z" fill="black"/>
</svg>
